<svg xmlns="http://www.w3.org/2000/svg" width="48" height="48" viewBox="0 0 48 48" fill="none">
    <path fill="#FFFFFF" fill-rule="evenodd"
        d="M24.059 47.81c7.083 0 13.447-3.082 17.824-7.977a5.67 5.67 0 0 0-7.272-.128l-.414.334a9.57 9.57 0 0 1-13.149-1.075 5.108 5.108 0 0 0-7.136-.476L9.137 42.58a23.804 23.804 0 0 0 14.922 5.228Zm7.75-11.576c3.78-3.05 9.095-2.941 12.73.005a23.793 23.793 0 0 0 3.424-12.334c0-5.015-1.544-9.669-4.182-13.512a5.66 5.66 0 0 0-4.944 1.3l-.398.354a9.57 9.57 0 0 1-13.184-.468 5.108 5.108 0 0 0-7.15-.146l-5.557 5.227-3.057-3.249 5.557-5.227a9.57 9.57 0 0 1 13.394.275 5.108 5.108 0 0 0 7.038.249l.399-.353a10.087 10.087 0 0 1 4.166-2.224A23.816 23.816 0 0 0 24.059 0C11.924 0 1.9 9.042.359 20.756a9.793 9.793 0 0 1 11.238 1.99 5.328 5.328 0 0 0 7.092.476l3.107-2.428a10.341 10.341 0 0 1 13.16.353l6.048 5.27-2.93 3.363-6.049-5.27a5.88 5.88 0 0 0-7.483-.2l-3.106 2.427a9.789 9.789 0 0 1-13.03-.875A5.328 5.328 0 0 0 .948 25.7l-.672.631a23.803 23.803 0 0 0 5.638 13.138l5.095-4.367a9.57 9.57 0 0 1 13.367.893 5.108 5.108 0 0 0 7.02.574l.413-.334Z"
        clip-rule="evenodd"></path>
</svg>