<svg xmlns="http://www.w3.org/2000/svg" width="40" height="40" viewBox="0 0 32 32" fill="none">
    <circle cx="16" cy="16" r="16" fill="black" />
    <path
        d="M16.0404 27C20.9892 27 25 24.1152 25 19.2863C25 14.7396 21.4906 11.5726 16.0243 11.5726V14.9121C13.5014 14.9121 11.6577 13.846 11.6577 11.6353C11.6577 9.42467 13.2588 8.12337 16.1536 8.12337C18.531 8.12337 19.9704 9.07975 20.3261 10.334H24.7251C24.3854 6.83777 20.9892 4 16.0566 4C10.849 4 7.14555 7.15133 7.14555 11.7607C7.14555 16.3701 10.9946 19.1295 16.0243 19.1295V15.9468C18.6927 15.9468 20.5202 17.107 20.5202 19.3647C20.5202 21.6224 18.6442 22.8923 16.0404 22.8923C13.6954 22.8923 12.062 21.8889 11.5607 20.5092H7C7.6469 24.1465 11.0916 27 16.0404 27Z"
        fill="white"></path>
</svg>