<svg width="34" height="34" viewBox="0 0 34 34" fill="none" xmlns="http://www.w3.org/2000/svg">
<path d="M7.67634 17L3.83768 20.8401L0 17L3.8367 13.1604L7.67634 17ZM16.9856 7.67622L23.5598 14.2596L27.396 10.42L16.9851 0L6.57518 10.42L10.4119 14.2596L16.9856 7.67622ZM30.1374 13.1599L26.3007 17L30.1374 20.8396L33.9707 17L30.1374 13.1599ZM16.9856 26.3238L10.4109 19.7438L6.57421 23.5805L16.9851 34L27.396 23.58L23.5593 19.7433L16.9856 26.3238ZM16.9856 20.8401L20.8218 17L16.9856 13.1604L13.1489 17L16.9856 20.8401Z" fill="white"/>
</svg>
