<svg width="41" height="29" viewBox="0 0 41 29" fill="none" xmlns="http://www.w3.org/2000/svg">
<path d="M7.68262 26.9297H14.5068C15.3625 26.8439 16.6549 26.4587 17.7256 25.5859C18.7863 24.7212 19.6463 23.367 19.6465 21.2822C19.6465 18.6382 18.5555 16.9526 17.084 15.9102C15.5883 14.8507 13.661 14.4317 11.9941 14.4316H11.4941V12.4033L11.9512 12.3643C13.1918 12.2573 15.053 11.8372 16.5869 10.9434C18.1131 10.054 19.2449 8.74351 19.2451 6.84766C19.245 4.34141 18.2555 2.72435 16.8525 1.32129L15.9326 0.401367L17.2314 0.467773C18.1885 0.516861 19.6098 0.894107 20.8291 1.86621C22.0662 2.85261 23.0717 4.43389 23.1855 6.82422H23.1846C23.2738 8.46286 22.2585 11.6107 18.1895 13.3154C19.37 13.6864 20.6984 14.2763 21.8779 15.1377C23.6923 16.4629 25.1904 18.4588 25.1904 21.2822C25.1902 24.1134 23.6832 25.9825 21.8506 27.1436C20.0362 28.293 17.8778 28.7712 16.4365 28.8643L16.4199 28.8652H0V26.9297H3.47461V2.26953H0V0.200195H7.68262V26.9297ZM29.3369 0.34375C30.3528 0.556402 31.8645 1.11043 33.1338 2.09863C34.4111 3.09314 35.4813 4.56253 35.4814 6.58008C35.4814 8.60112 34.3176 10.2415 32.957 11.4424C32.0737 12.222 31.0782 12.8402 30.1904 13.2881C31.3861 13.676 32.7728 14.2752 33.9941 15.1113C35.7253 16.2966 37.2186 18.0219 37.2188 20.3457C37.2188 24.4057 38.6971 27.1131 39.3721 27.9072L40.0723 28.7314H32.8838L32.1016 26.3848L32.082 26.3252L32.0771 26.2637L31.5459 19.2197C31.2177 17.6833 29.2956 14.4308 24.0225 14.4307H23.5225V12.3945L23.9883 12.3623C25.2244 12.277 27.0801 11.871 28.6094 10.9492C30.1239 10.0361 31.2743 8.65155 31.2744 6.58008C31.2743 5.60941 30.7968 3.10247 28.8809 1.18652L27.6943 0L29.3369 0.34375Z" fill="white"/>
</svg>
