<svg width="28" height="31" viewBox="0 0 28 31" fill="none" xmlns="http://www.w3.org/2000/svg">
<path d="M14.1059 0.487031L14.1734 0.218212L14.1059 0.487031ZM14.1734 0.218212C13.9947 0.173356 13.7863 0.173357 13.6076 0.218212L13.6008 0.219916L4.78684 2.91375L4.77881 2.91644C4.21928 3.10368 3.95123 3.6705 4.08387 4.20315L4.08964 4.22632L4.09777 4.24877C4.2765 4.74221 4.82706 5.08987 5.40612 4.90022L13.903 2.30746L22.5843 4.9791C23.1735 5.17246 23.7245 4.81034 23.8973 4.28974C24.093 3.70057 23.7356 3.14421 23.2122 2.96909L23.2086 2.96789L14.189 0.222109L14.1734 0.218212ZM1.05828 4.0675C1.17204 4.0156 1.29128 3.98467 1.41098 3.97402C1.51132 3.96067 1.61509 3.96202 1.71961 3.97952C2.14001 4.04986 2.46096 4.36035 2.55626 4.75279L7.49949 14.4365H20.5854L25.2467 4.77392C25.3051 4.51376 25.465 4.28586 25.698 4.14499C25.9981 3.94169 26.3897 3.91557 26.7227 4.0675C27.0684 4.22524 27.2647 4.54022 27.3033 4.8717L27.4564 5.76858C27.5003 5.97563 27.6487 7.05259 27.6487 8.65124C27.6487 10.2627 27.4883 12.3826 26.9003 14.7706C26.3386 17.0261 25.3209 19.7436 23.4709 22.4083C21.6208 25.0733 18.9423 27.7064 15.0949 29.7721L15.0931 29.7731L14.3955 30.1621L14.3945 30.1627C14.0694 30.3486 13.7118 30.3488 13.3868 30.1629L13.3856 30.1622L12.6878 29.773L12.6867 29.7724C8.83931 27.7068 6.16018 25.0733 4.31003 22.4083C2.46148 19.7456 1.44237 17.0288 0.931982 14.7393C0.344951 12.3531 0.184753 10.2087 0.184753 8.62489C0.184753 7.02631 0.33313 5.94938 0.377036 5.74225L0.487219 5.09702C0.451888 4.68093 0.67872 4.29263 1.01177 4.09202L1.03433 4.07843L1.05828 4.0675ZM1.77705 6.56858L1.73019 7.61634C1.7167 7.91803 1.70787 8.25595 1.70787 8.62489C1.70787 10.1059 1.83955 12.143 2.39307 14.3661C2.92026 16.5094 3.86945 19.0243 5.58325 21.5126L5.58405 21.5137C7.046 23.6135 9.06435 25.7133 11.8839 27.5006L12.74 28.0433L1.77705 6.56858ZM26.0812 7.71497L26.0367 6.60653L21.8438 15.2979V15.3223L15.0743 28.0382L15.9637 27.4709C18.747 25.6959 20.7699 23.6237 22.2237 21.5129C23.9379 19.0243 24.8868 16.4833 25.414 14.3665C25.9676 12.1434 26.0994 10.106 26.0994 8.62489C26.0994 8.29564 26.0923 7.9911 26.0812 7.71497ZM7.65695 15.9641H20.4093L13.9019 28.1978L7.65695 15.9641Z" fill="white"/>
<path d="M14.1059 0.487031L14.1734 0.218212M14.1734 0.218212C13.9947 0.173356 13.7863 0.173357 13.6076 0.218212L13.6008 0.219916L4.78684 2.91375L4.77881 2.91644C4.21928 3.10368 3.95123 3.6705 4.08387 4.20315L4.08964 4.22632L4.09777 4.24877C4.2765 4.74221 4.82706 5.08987 5.40612 4.90022L13.903 2.30746L22.5843 4.9791C23.1735 5.17246 23.7245 4.81034 23.8973 4.28974C24.093 3.70057 23.7356 3.14421 23.2122 2.96909L23.2086 2.96789L14.189 0.222109L14.1734 0.218212ZM1.05828 4.0675C1.17204 4.0156 1.29128 3.98467 1.41098 3.97402C1.51132 3.96067 1.61509 3.96203 1.71961 3.97952C2.14001 4.04986 2.46096 4.36035 2.55626 4.75279L7.49949 14.4365H20.5854L25.2467 4.77392C25.3051 4.51376 25.465 4.28586 25.698 4.14499C25.9981 3.94169 26.3897 3.91557 26.7227 4.0675C27.0684 4.22524 27.2647 4.54022 27.3033 4.8717L27.4564 5.76858C27.5003 5.97563 27.6487 7.05259 27.6487 8.65124C27.6487 10.2627 27.4883 12.3826 26.9003 14.7706C26.3386 17.0261 25.3209 19.7436 23.4709 22.4083C21.6208 25.0733 18.9423 27.7064 15.0949 29.7721L15.0931 29.7731L14.3955 30.1621L14.3945 30.1627C14.0694 30.3486 13.7118 30.3488 13.3868 30.1629L13.3856 30.1622L12.6878 29.773L12.6867 29.7724C8.83931 27.7068 6.16018 25.0733 4.31003 22.4083C2.46148 19.7456 1.44237 17.0288 0.931982 14.7393C0.344951 12.3531 0.184753 10.2087 0.184753 8.62489C0.184753 7.02631 0.33313 5.94938 0.377036 5.74225L0.487219 5.09702C0.451888 4.68093 0.67872 4.29263 1.01177 4.09202L1.03433 4.07843L1.05828 4.0675ZM1.77705 6.56858L1.73019 7.61634C1.7167 7.91802 1.70787 8.25595 1.70787 8.62489C1.70787 10.1059 1.83955 12.143 2.39307 14.3661C2.92026 16.5094 3.86945 19.0243 5.58325 21.5126L5.58405 21.5137C7.046 23.6135 9.06435 25.7133 11.8839 27.5006L12.74 28.0433L1.77705 6.56858ZM26.0812 7.71497L26.0367 6.60653L21.8438 15.2979V15.3223L15.0743 28.0382L15.9637 27.4709C18.747 25.6959 20.7699 23.6237 22.2237 21.5129C23.9379 19.0243 24.8868 16.4833 25.414 14.3665C25.9676 12.1434 26.0994 10.106 26.0994 8.62489C26.0994 8.29564 26.0923 7.9911 26.0812 7.71497ZM7.65695 15.9641H20.4093L13.9019 28.1978L7.65695 15.9641Z" stroke="white" stroke-width="0.369543" stroke-miterlimit="10"/>
<path d="M20.4093 15.9639H7.65692L13.9019 28.1976L20.4093 15.9639Z" fill="#272727"/>
</svg>
