<svg width="34" height="34" viewBox="0 0 34 34" fill="none" xmlns="http://www.w3.org/2000/svg">
<path d="M2.0813 1.88428C6.0589 -1.95252 14.5766 0.269139 22.0911 6.74463H13.1584C11.5924 6.74497 10.634 8.46408 11.4573 9.79639L20.4973 24.4253C21.2928 25.7124 23.1744 25.6839 23.9309 24.3735L29.3254 15.0269C33.7075 21.8621 34.697 28.7821 31.2424 32.1147C26.7923 36.4074 16.6562 33.1199 8.60376 24.772C0.551679 16.4242 -2.36856 6.17693 2.0813 1.88428Z" fill="white"/>
<path d="M30.6445 6.74463C32.184 6.74463 33.1466 8.41131 32.3769 9.74463L29.3261 15.0269C28.0636 13.0575 26.5208 11.0943 24.7197 9.22705C23.8648 8.34078 22.9843 7.51381 22.0917 6.74463H30.6445Z" fill="white"/>
</svg>
