<svg width="37" height="34" viewBox="0 0 37 34" fill="none" xmlns="http://www.w3.org/2000/svg">
<path fill-rule="evenodd" clip-rule="evenodd" d="M15.4299 12.396L15.4449 12.4248C15.8862 12.4248 16.2138 11.9322 16.2875 11.3083C15.925 11.4296 15.5687 11.5571 15.2148 11.6834C15.1711 11.7584 15.1273 11.8334 15.0773 11.8997C14.9148 12.0747 15.2073 12.3948 15.4299 12.3948V12.396ZM36.369 12.8086C35.4425 9.05787 28.1886 8.12519 19.5069 10.3581C19.1969 10.5907 18.843 10.6957 18.5692 10.7395C17.8479 10.8457 17.5891 10.8932 17.519 11.3596C17.4503 11.8259 18.6818 12.056 19.5107 11.4508C20.0683 11.0458 20.4696 10.1668 20.9647 10.1056C21.6073 10.0293 21.7236 11.7171 21.356 12.5486C20.9872 13.38 19.747 13.9163 19.2806 13.4962C19.1206 13.3437 19.1431 13.2587 19.1206 12.9024C19.0981 12.5448 18.2779 12.6111 18.2779 13.1537C18.3029 13.5325 18.2854 13.9163 18.2229 14.2914C17.9929 15.4841 15.8562 15.6742 15.3024 15.6117C14.7522 15.5491 14.0771 15.1153 14.4059 14.8453C15.1598 14.2514 14.6897 12.8624 13.5995 12.2973C13.257 12.4348 12.9181 12.5773 12.5818 12.7236C12.6165 12.8084 12.6709 12.8837 12.7404 12.9432C12.81 13.0028 12.8928 13.045 12.9819 13.0662C13.2145 13.1363 13.4191 13.278 13.5665 13.4712C13.7138 13.6644 13.7964 13.8992 13.8025 14.1421C13.8086 14.385 13.7379 14.6236 13.6004 14.824C13.4629 15.0243 13.2657 15.1761 13.0369 15.2578C11.6116 16.0455 10.6452 14.5865 10.5614 14.2664C10.4927 14.0038 10.3901 13.9013 10.1351 13.8726C3.5213 17.2345 -0.698274 21.6216 0.0956308 24.881C1.12458 29.0743 10.0801 29.7494 20.0933 26.4088C30.1077 23.0694 37.4004 17.0057 36.369 12.8086Z" fill="url(#paint0_linear_90_401)"/>
<path fill-rule="evenodd" clip-rule="evenodd" d="M15.5362 9.1942C15.4281 9.21383 15.3302 9.27027 15.2591 9.35392C15.188 9.43757 15.1481 9.54327 15.1461 9.65304C15.1598 9.92059 15.4736 10.1056 15.4736 10.5695C15.5149 11.0473 15.3728 11.5229 15.0761 11.8997C14.916 12.0748 15.2073 12.3961 15.4299 12.3961L15.4449 12.4248C15.9512 12.4248 16.3088 11.776 16.3013 11.0171C16.3638 10.1019 16.0025 9.03792 15.5362 9.1917V9.1942ZM18.5405 9.1867C18.6076 9.14123 18.6609 9.07805 18.6943 9.00416C18.7185 8.94868 18.7307 8.88872 18.7302 8.8282C18.7297 8.76767 18.7164 8.70793 18.6913 8.65286C18.6662 8.59779 18.6298 8.54862 18.5844 8.50856C18.539 8.46849 18.4857 8.43842 18.428 8.4203C18.1942 8.47281 17.9529 8.47656 17.7203 8.4353C17.487 8.3917 17.2642 8.30385 17.064 8.1765C16.7276 7.9102 16.8964 7.03253 16.8964 7.03253C16.9102 6.73997 16.5964 6.62745 16.4838 6.61995C16.3676 6.61245 16.1013 6.56494 15.9337 7.00252C15.8487 7.33509 15.8637 7.71766 15.955 8.04898C16.0463 8.38154 16.2213 8.6841 16.4613 8.9279C16.7464 9.16545 17.0965 9.31548 17.4653 9.36173C17.8329 9.40924 18.2092 9.34798 18.5442 9.1867H18.5405ZM34.3373 28.6705C33.5709 26.4026 29.924 21.8067 25.7932 18.6248C25.0355 17.8071 24.8742 16.6369 24.5542 15.5142C24.1124 14.3113 23.902 13.0357 23.934 11.7547C24.1303 10.8458 24.3854 9.9531 24.6992 9.08168C25.2068 7.22507 25.6219 5.3397 25.9394 3.44308C26.1202 2.4118 26.0943 1.3549 25.8632 0.33372C25.5169 -1.05655 20.2396 2.99174 19.2594 3.65562C18.2367 3.14213 17.1363 2.80082 16.0025 2.64542C13.7383 2.41913 11.4516 2.71418 9.32244 3.50934C7.46958 2.22534 4.38773 -0.356415 3.34628 0.0411627H3.36753C2.40859 0.43874 2.85993 2.40037 3.05372 3.58561C3.52006 6.39741 4.69404 9.62053 5.00035 12.1873C6.10556 21.4641 6.51064 26.9427 16.1813 32.6413C17.249 33.1851 18.3692 33.6227 19.5219 33.9465C21.8949 34.2604 22.7776 33.1226 22.7776 32.3575C22.6839 31.528 22.3021 30.7576 21.6986 30.1808C20.9185 29.3081 19.6457 28.3017 19.0543 27.584C20.604 27.4011 22.1401 27.1171 23.6527 26.7339C24.1464 26.5514 24.6609 26.4313 25.1843 26.3763C25.4457 26.4112 25.6881 26.5322 25.8732 26.7201C26.5271 27.2627 27.1459 27.8428 27.736 28.4555C28.4994 29.315 29.3301 30.1123 30.2203 30.8397C30.7327 31.2612 31.3726 31.4972 32.036 31.5092C32.6994 31.5213 33.3474 31.3087 33.8747 30.9059C34.1836 30.6321 34.3961 30.2683 34.4799 29.8632C34.5646 29.4599 34.5159 29.04 34.3411 28.6668L34.3373 28.6705ZM21.3598 12.5486C20.991 13.38 19.7507 13.9164 19.2844 13.4975C19.1244 13.3438 19.1469 13.26 19.1244 12.9024C19.1019 12.5449 18.2817 12.6111 18.2817 13.155C18.3067 13.5338 18.2892 13.9176 18.2267 14.2927C17.9966 15.4842 15.86 15.6742 15.3061 15.6117C14.756 15.5492 14.0809 15.1166 14.4084 14.8466C15.2086 14.2189 14.6385 12.7061 13.4207 12.2098C12.9832 12.0423 12.8156 11.9797 12.6543 12.141C12.5949 12.2188 12.5562 12.3105 12.5418 12.4073C12.5282 12.5026 12.5368 12.5997 12.5668 12.6911C12.6006 12.7824 12.6543 12.8662 12.7281 12.9287C12.8006 12.9937 12.8881 13.0412 12.9832 13.0637C13.2171 13.132 13.4233 13.273 13.5716 13.4663C13.72 13.6597 13.8029 13.8953 13.8083 14.1389C13.8146 14.3821 13.7427 14.6209 13.6033 14.8203C13.4658 15.0215 13.2679 15.1739 13.0382 15.2554C11.6129 16.043 10.6452 14.584 10.5627 14.2627C10.4777 13.9426 10.3464 13.8589 9.94131 13.8589C8.00219 13.7964 8.03469 13.0262 7.8409 12.4611C7.64837 11.896 8.14096 11.6297 8.22473 11.6959C8.51229 11.9435 8.87361 12.0935 9.25243 12.1223C9.65751 12.0535 9.62125 12.3048 10.0188 12.8187C10.694 13.6901 11.2766 12.5449 10.894 12.3311C10.0513 11.8485 10.2739 11.0758 10.5727 10.9083C10.6444 10.8801 10.7083 10.8351 10.759 10.777C10.8085 10.7176 10.8433 10.6473 10.8604 10.5719C10.8776 10.4965 10.8767 10.4182 10.8577 10.3432C10.8372 10.2688 10.7996 10.2003 10.7477 10.1431C10.6448 10.0444 10.5077 9.98929 10.3651 9.98929C10.2226 9.98929 10.0855 10.0444 9.98257 10.1431C9.46747 10.617 9.78879 11.2033 9.36245 11.2434C8.72733 11.2909 7.64462 10.5257 8.0897 8.99791C8.53479 7.47011 10.3864 7.47011 10.3864 7.47011L10.3389 7.99772C10.3711 8.3226 10.4704 8.63726 10.6305 8.92177C10.7906 9.20629 11.0081 9.45445 11.2691 9.65054C12.4256 10.3069 13.6208 9.98561 13.7121 9.54427C13.7671 9.27047 13.392 8.9504 12.7931 8.98666C12.4336 9.02652 12.0717 8.93776 11.7714 8.73613C11.4711 8.5345 11.252 8.23303 11.1528 7.8852C11.1061 7.4691 11.2065 7.04978 11.4366 6.69996C11.6667 6.3499 12.0092 6.08734 12.4118 5.95982C12.7154 5.84738 13.0492 5.84734 13.3529 5.95971C13.6565 6.07209 13.9099 6.28944 14.0671 6.57244C14.1096 6.65245 14.1209 6.74747 14.1796 6.81624C14.2657 6.92388 14.3886 6.99584 14.5246 7.01823C14.6605 7.04063 14.8 7.01187 14.916 6.93751C14.916 6.93751 15.6524 5.80729 16.5389 5.86855C16.7939 5.88731 17.039 5.96732 17.2565 6.0986C17.4753 6.22987 17.6578 6.41616 17.7891 6.63495C17.7891 6.63495 19.8207 6.22987 20.1558 8.01647C20.5459 10.0669 19.2919 10.6307 18.5693 10.737C17.8479 10.842 17.5891 10.8895 17.519 11.3571C17.4503 11.8235 18.6818 12.0535 19.5107 11.4484C20.0683 11.0433 20.4696 10.1644 20.966 10.1019C21.6073 10.0269 21.7236 11.7147 21.356 12.5449L21.3598 12.5486Z" fill="white"/>
<path d="M15.5324 15.7143C15.4374 15.7143 15.3612 15.7106 15.2986 15.7018C14.8723 15.6556 14.3322 15.3855 14.2447 15.0892C14.2122 14.9729 14.2484 14.8604 14.3547 14.7767C14.6173 14.5691 14.7298 14.244 14.6748 13.854C14.5835 13.2088 14.0546 12.5662 13.387 12.2937C12.9469 12.1224 12.8332 12.0961 12.7244 12.1986C12.6763 12.2629 12.6449 12.3381 12.6331 12.4174C12.622 12.498 12.6293 12.5801 12.6544 12.6575C12.6827 12.7344 12.7294 12.8032 12.7905 12.8578C12.8515 12.9125 12.9249 12.9515 13.0044 12.9713C13.2571 13.0459 13.4797 13.1986 13.6403 13.4075C13.8009 13.6163 13.8912 13.8707 13.8984 14.134C13.9063 14.3958 13.8306 14.6534 13.6822 14.8692C13.5339 15.0851 13.3205 15.248 13.0732 15.3343C12.5706 15.6118 12.0718 15.6481 11.5942 15.4443C10.9415 15.163 10.5315 14.5066 10.4739 14.2816C10.4052 14.019 10.3289 13.9452 9.94134 13.9452C8.15474 13.8902 7.96596 13.2201 7.81593 12.68C7.79801 12.6141 7.77842 12.5486 7.75717 12.4837C7.62214 12.0886 7.78717 11.8011 7.98346 11.666C8.07848 11.601 8.206 11.5535 8.28602 11.6185C8.55982 11.8523 8.89489 11.9936 9.25246 12.0274C9.58877 11.9761 9.68629 12.1361 9.83632 12.3774C9.89883 12.48 9.97885 12.6112 10.0951 12.76C10.2702 12.9863 10.4452 13.0813 10.609 13.0376C10.7803 12.9901 10.904 12.7888 10.9265 12.6212C10.934 12.5737 10.9378 12.4537 10.854 12.4062C10.2989 12.0886 10.2164 11.6773 10.2164 11.4585C10.2164 11.1885 10.3464 10.9297 10.529 10.8234L10.5402 10.8171C10.5987 10.7942 10.6509 10.7578 10.6927 10.7109C10.7331 10.6631 10.7617 10.6066 10.7762 10.5458C10.7908 10.485 10.7909 10.4216 10.7765 10.3608C10.7607 10.3003 10.7292 10.2451 10.6852 10.2008C10.5999 10.1199 10.4865 10.0751 10.3689 10.0757C10.2494 10.0767 10.1347 10.1227 10.0476 10.2045C9.81007 10.4233 9.77006 10.6596 9.73005 10.8709C9.69379 11.0834 9.65379 11.3047 9.36998 11.331C8.99491 11.356 8.55232 11.1372 8.26477 10.7834C7.88969 10.3208 7.79467 9.67566 8.00221 8.96802C8.46105 7.39271 10.3689 7.37396 10.3864 7.37396H10.4852L10.4302 7.99033C10.4639 8.30039 10.5552 8.59544 10.7077 8.86925C10.8603 9.14305 11.0653 9.3756 11.3166 9.56563C12.0893 10.0032 12.8807 9.99572 13.3258 9.79568C13.4933 9.71941 13.5996 9.62064 13.6208 9.51812C13.6358 9.45311 13.6071 9.3756 13.5458 9.30308C13.432 9.17556 13.1757 9.04428 12.7969 9.06929C12.4165 9.11086 12.0337 9.01657 11.7161 8.8031C11.3985 8.58963 11.1667 8.27074 11.0616 7.90281V7.88781C11.0103 7.45022 11.1166 7.01013 11.3566 6.64131C11.5979 6.27249 11.958 5.99994 12.3781 5.86491C12.6981 5.74364 13.0532 5.74364 13.377 5.86491C13.7021 5.98493 13.9709 6.21873 14.1397 6.52129C14.1609 6.5613 14.1759 6.6013 14.1897 6.63756C14.2005 6.67828 14.2192 6.7165 14.2447 6.75008C14.2918 6.80995 14.353 6.85725 14.4228 6.88778C14.4926 6.91832 14.5688 6.93114 14.6448 6.92512C14.7156 6.91897 14.7842 6.89765 14.8461 6.86261C14.9486 6.71008 15.6637 5.70738 16.5426 5.76989C16.8009 5.7883 17.0514 5.86601 17.2748 5.99698C17.4981 6.12795 17.6882 6.30865 17.8304 6.52504C18.0629 6.48753 18.8906 6.40377 19.5245 6.8351C19.9045 7.09015 20.1446 7.48023 20.2396 7.99033C20.3996 8.83674 20.3021 9.52188 19.9483 10.022C19.5245 10.6196 18.8506 10.7759 18.5768 10.8171C17.8391 10.9259 17.6616 10.9672 17.6028 11.3597C17.5891 11.4585 17.6729 11.531 17.7454 11.5748C18.0629 11.7686 18.8543 11.8011 19.452 11.3635C19.6745 11.2035 19.8745 10.9584 20.0683 10.7221C20.3534 10.372 20.6222 10.0432 20.951 10.0032C21.1148 9.98572 21.2636 10.0545 21.3773 10.2108C21.7124 10.6633 21.7424 11.8811 21.4361 12.5737C21.1773 13.1613 20.5209 13.5802 20.0108 13.6902C19.6745 13.7627 19.3932 13.7114 19.2157 13.5514C19.0506 13.3951 19.0431 13.2814 19.0331 13.0376C19.0331 12.9938 19.0294 12.9463 19.0256 12.895C19.0181 12.7825 18.8681 12.7575 18.7806 12.7575C18.613 12.76 18.3655 12.87 18.3655 13.1401C18.3905 13.5189 18.373 13.909 18.3105 14.2916C18.0917 15.4293 16.3088 15.6993 15.5249 15.6993L15.5324 15.7143ZM12.8694 11.9574C13.0194 11.9574 13.1982 12.0274 13.457 12.1261C14.1947 12.4249 14.7585 13.1101 14.8573 13.829C14.9236 14.2841 14.7848 14.6716 14.4672 14.9192C14.4085 14.9667 14.4085 15.0067 14.4197 15.0392C14.4697 15.218 14.8973 15.473 15.3174 15.5205C15.83 15.5793 17.9204 15.4005 18.1354 14.2741C18.1942 13.909 18.2117 13.5302 18.1867 13.1576C18.1867 12.7963 18.493 12.595 18.7806 12.585C19.0219 12.5775 19.2007 12.705 19.2119 12.8913C19.2119 12.9463 19.2182 12.9938 19.2182 13.0376C19.2307 13.2751 19.2332 13.3214 19.3432 13.4276C19.4745 13.5477 19.6995 13.5802 19.9733 13.5227C20.4409 13.4239 21.0385 13.0413 21.2723 12.5125C21.5524 11.8773 21.5349 10.7321 21.2348 10.3283C21.1598 10.2258 21.0748 10.182 20.976 10.1933C20.721 10.2258 20.4759 10.5246 20.2134 10.8459C20.0133 11.0897 19.8058 11.346 19.562 11.521C18.9456 11.9686 18.0767 11.9986 17.6541 11.7386C17.4866 11.6373 17.4028 11.4948 17.4291 11.3422C17.5078 10.8021 17.8591 10.7509 18.5543 10.6446C18.8031 10.6083 19.4194 10.4633 19.802 9.9232C20.1271 9.46311 20.2184 8.82924 20.0646 8.03033C19.9771 7.56774 19.762 7.21767 19.4269 6.99138C18.7556 6.53879 17.8116 6.71758 17.8041 6.72133L17.7416 6.73258L17.7091 6.67757C17.5847 6.47234 17.4127 6.30002 17.2078 6.17513C17.0028 6.05024 16.7708 5.97643 16.5314 5.95993C15.7062 5.90117 14.9961 6.97638 14.9886 6.98763L14.9773 7.00638L14.9598 7.01639C14.8701 7.0751 14.7667 7.10956 14.6598 7.11641C14.5542 7.12267 14.4485 7.10471 14.351 7.06389C14.2531 7.0217 14.1666 6.95702 14.0984 6.87511C14.0603 6.82449 14.0319 6.76727 14.0146 6.70632C14.0047 6.6755 13.9926 6.64541 13.9784 6.61631C13.8331 6.35126 13.5971 6.14746 13.3138 6.04229C13.0304 5.93712 12.7186 5.93762 12.4356 6.0437C12.0544 6.16486 11.7264 6.41337 11.5066 6.74758C11.2916 7.0789 11.1966 7.47272 11.2366 7.86655C11.3319 8.19087 11.5381 8.47141 11.8192 8.65923C12.1002 8.84706 12.4383 8.93024 12.7744 8.89425C13.1582 8.86925 13.4933 8.98177 13.6758 9.19056C13.7746 9.30308 13.8184 9.43436 13.7921 9.56188C13.7596 9.72316 13.6171 9.86819 13.3958 9.97071C12.9069 10.1895 12.0455 10.2045 11.2141 9.73317L11.2041 9.72567C10.9329 9.52293 10.7069 9.26592 10.5405 8.97102C10.3741 8.67612 10.271 8.34979 10.2377 8.01283V8.00533L10.2739 7.57524C9.89133 7.604 8.52357 7.79029 8.16225 9.03303C7.97221 9.68316 8.05722 10.2658 8.39229 10.6859C8.67985 11.0422 9.07367 11.186 9.33998 11.1672C9.4675 11.1547 9.49376 11.0934 9.53376 10.8571C9.57002 10.6421 9.62503 10.3495 9.90509 10.0907C10.0253 9.97696 10.1846 9.91355 10.3502 9.91355C10.5157 9.91355 10.675 9.97696 10.7953 10.0907C10.86 10.1576 10.9065 10.2399 10.9306 10.3298C10.9547 10.4197 10.9554 10.5143 10.9328 10.6046C10.9132 10.6935 10.872 10.7763 10.8129 10.8456C10.7539 10.9149 10.6787 10.9687 10.594 11.0022C10.4852 11.0684 10.3789 11.2472 10.3789 11.4773C10.3789 11.6548 10.4489 11.9949 10.9228 12.2649C11.0478 12.3337 11.1091 12.4787 11.0866 12.6575C11.0578 12.8875 10.8978 13.1576 10.639 13.2263C10.4702 13.2739 10.2151 13.2514 9.93509 12.8888C9.81007 12.7313 9.73005 12.5962 9.66504 12.49C9.51501 12.2462 9.47875 12.1911 9.25621 12.2274H9.23496C8.84331 12.1947 8.47131 12.0418 8.16975 11.7898C8.09109 11.8124 8.02263 11.8614 7.97596 11.9286C7.90344 12.0236 7.83093 12.1911 7.91845 12.4462L7.98096 12.6512C8.12974 13.1801 8.28227 13.7302 9.93509 13.7815C10.3789 13.7815 10.544 13.8902 10.6415 14.2553C10.679 14.4016 11.0328 15.028 11.6592 15.2943C12.0855 15.4768 12.5306 15.4405 12.9869 15.1892L13.0007 15.1817C13.2128 15.1091 13.396 14.9703 13.5234 14.7857C13.6508 14.6012 13.7156 14.3806 13.7083 14.1565C13.702 13.9327 13.6254 13.7165 13.4894 13.5386C13.3534 13.3607 13.165 13.23 12.9507 13.1651C12.8426 13.1372 12.7429 13.0834 12.6602 13.0085C12.5774 12.9336 12.5141 12.8398 12.4756 12.735C12.4392 12.6282 12.4281 12.5143 12.4431 12.4024C12.4616 12.2919 12.5052 12.1871 12.5706 12.0961L12.5781 12.0861C12.6133 12.0475 12.6561 12.0168 12.704 11.9959C12.7518 11.975 12.8035 11.9644 12.8557 11.9649L12.8694 11.9574ZM15.4449 12.5162H15.3899L15.3712 12.4787C15.2847 12.4589 15.2038 12.4199 15.1345 12.3645C15.0652 12.309 15.0093 12.2387 14.9711 12.1586C14.9161 12.0386 14.9298 11.9211 15.0111 11.8373C15.2911 11.4835 15.4262 11.0359 15.3862 10.5758C15.3862 10.3245 15.2911 10.167 15.1999 10.0182C15.1311 9.9007 15.0648 9.79193 15.0548 9.6569C15.0558 9.52586 15.102 9.39917 15.1856 9.29826C15.2692 9.19734 15.3851 9.12839 15.5137 9.10304C15.5767 9.08417 15.6433 9.08125 15.7077 9.09457C15.7721 9.10788 15.8322 9.137 15.8825 9.17931C16.2201 9.44186 16.4476 10.2508 16.3926 11.0247C16.4001 11.5348 16.2401 12.0049 15.97 12.2787C15.9027 12.3512 15.8216 12.4096 15.7314 12.4504C15.6412 12.4911 15.5438 12.5135 15.4449 12.5162ZM15.6275 9.27058C15.6049 9.27058 15.5862 9.27058 15.5649 9.28183H15.5537C15.4666 9.30055 15.3878 9.34653 15.3286 9.4131C15.2698 9.4793 15.2369 9.56458 15.2361 9.65315C15.2399 9.73692 15.2949 9.82068 15.3537 9.9232C15.4487 10.0795 15.5649 10.2733 15.5649 10.5683C15.6087 11.0647 15.4587 11.556 15.1461 11.9549C15.1311 11.9686 15.0986 12.0049 15.1336 12.0861C15.1861 12.1986 15.3236 12.3049 15.4262 12.3049H15.4812L15.4949 12.3337C15.6268 12.3156 15.7483 12.2525 15.8387 12.1549C16.0713 11.9173 16.2138 11.4835 16.2101 11.0247C16.2576 10.3245 16.0538 9.55063 15.7687 9.32934C15.7288 9.29547 15.6786 9.27609 15.6262 9.27433V9.27058H15.6275ZM17.7029 9.46686C17.2258 9.47012 16.7631 9.30348 16.3976 8.99677C16.1419 8.73972 15.9567 8.42107 15.86 8.07159C15.762 7.71524 15.7547 7.34003 15.8387 6.98013V6.96888C16.0238 6.49128 16.3338 6.51754 16.4651 6.52879H16.4839C16.6664 6.54254 17.0015 6.70382 16.984 7.03889V7.05014C16.939 7.27894 16.8777 7.91781 17.1177 8.1066C17.5002 8.34921 17.9632 8.43057 18.4055 8.33289H18.4493C18.5433 8.36107 18.6274 8.41561 18.6914 8.49006C18.7554 8.56451 18.7968 8.65575 18.8106 8.75297C18.824 8.84923 18.811 8.94731 18.7731 9.03678C18.7345 9.12746 18.6701 9.20484 18.588 9.25932L18.5768 9.26683C18.2992 9.3981 18.0017 9.46311 17.6979 9.46311L17.7029 9.46686ZM16.0138 7.02889C15.9393 7.35568 15.9466 7.69579 16.035 8.01908C16.1188 8.33664 16.2863 8.62545 16.5201 8.858C16.7864 9.08054 17.1177 9.22307 17.4716 9.26683C17.8216 9.31058 18.1755 9.25182 18.4968 9.10304C18.5469 9.06761 18.5869 9.0198 18.613 8.96427C18.6376 8.90545 18.6462 8.84119 18.638 8.77798C18.6275 8.71557 18.6018 8.65673 18.563 8.6067C18.527 8.56336 18.4799 8.53053 18.4268 8.51168C17.9417 8.61451 17.4357 8.52149 17.019 8.25288C16.6514 7.96157 16.7864 7.14016 16.8089 7.02014C16.8152 6.78759 16.5314 6.71383 16.4801 6.71008H16.4576C16.3451 6.70007 16.1551 6.68507 16.02 7.02764L16.0138 7.02889Z" fill="white"/>
<defs>
<linearGradient id="paint0_linear_90_401" x1="5.8355" y1="31.281" x2="30.5891" y2="6.45862" gradientUnits="userSpaceOnUse">
<stop stop-color="white" stop-opacity="0.6"/>
<stop offset="0.98" stop-color="white" stop-opacity="0.1"/>
</linearGradient>
</defs>
</svg>
