<svg width="40" height="19" viewBox="0 0 40 19" fill="none" xmlns="http://www.w3.org/2000/svg">
<path opacity="0.3" d="M2.7373 0C3.27304 2.24022e-05 4.08455 0.0565374 5.17188 0.168945C6.25957 0.281396 7.07735 0.336914 7.62402 0.336914C8.36738 0.336903 9.48227 0.291316 10.9688 0.200195C12.4556 0.109051 13.571 0.0640586 14.3145 0.0644531C15.6805 0.064464 16.3641 0.610076 16.3643 1.70117C16.3643 2.66271 15.899 3.65696 14.9697 4.68359C14.0425 5.70943 12.9222 7.09535 11.6084 8.84082C9.78294 11.2591 8.64557 12.7468 8.19727 13.3027C8.86424 13.2814 9.41657 13.2705 9.85352 13.2705C10.2905 13.2705 10.9281 13.3479 11.7646 13.5029C12.601 13.6583 13.2321 13.7357 13.6582 13.7354C14.3141 13.7354 14.8584 13.9366 15.291 14.3379C15.7235 14.7391 15.9393 15.2446 15.9385 15.8545C15.9385 16.464 15.7259 16.9672 15.2998 17.3633C14.8737 17.7594 14.3264 17.9567 13.6592 17.9551C13.2218 17.955 12.585 17.88 11.749 17.7305C10.9132 17.581 10.282 17.5063 9.85547 17.5059C7.40635 17.5059 5.11581 17.7031 2.98438 18.0977C2.74735 18.1475 2.50603 18.1756 2.26367 18.1816C1.66217 18.1816 1.14781 18.0214 0.72168 17.7002C0.240373 17.3475 2.65282e-05 16.8817 0 16.3037C0 15.6188 0.344363 14.9927 1.0332 14.4258C3.75486 12.1685 6.60312 8.8676 9.57715 4.52344C8.8992 4.55539 8.24872 4.57128 7.62598 4.57129C5.92517 4.56876 4.22593 4.45072 2.54199 4.2168C1.19722 4.03525 0.525391 3.33916 0.525391 2.12988C0.5209 1.85133 0.572942 1.57467 0.679688 1.31641C0.786473 1.05807 0.945282 0.823159 1.14648 0.625977C1.56132 0.208568 2.09189 0 2.7373 0ZM38.0293 5.46191C38.3813 5.40873 38.4214 5.63585 38.3467 5.93066C38.2326 6.38356 38.0322 6.80156 37.9688 7.26953C37.9149 7.66557 37.9468 8.08411 38.127 8.43848C38.4325 9.03399 39.0276 9.37997 39.3877 9.93262C39.6413 10.3275 39.8184 10.7693 39.9102 11.2334C39.9437 11.3985 39.9682 11.5654 39.9824 11.7334C40.1257 13.4713 39.395 15.2858 38.1807 16.4844C37.3414 17.3153 36.2826 17.872 35.1377 18.085C33.9927 18.2979 32.812 18.157 31.7441 17.6807C30.6764 17.2043 29.7684 16.4135 29.1348 15.4072C28.5011 14.4008 28.1691 13.2234 28.1816 12.0234C28.2154 8.59184 31.0134 5.89693 34.3379 5.98535C35.0602 6.00447 35.7979 6.2149 36.4512 6.50977C35.9265 7.30051 36.0618 8.06203 36.2988 8.87305C36.4471 9.38147 36.7632 9.84517 36.8896 10.3594C37.0469 10.9994 36.9008 11.8748 36.4854 12.4072C36.4865 12.3002 36.499 12.1902 36.499 12.082C36.4981 11.4357 36.2517 10.8155 35.8135 10.3535C35.3751 9.89147 34.7789 9.62449 34.1523 9.60938C33.5257 9.59426 32.9178 9.83206 32.459 10.2725C32.0005 10.7128 31.7266 11.3205 31.6963 11.9658C31.6188 13.7049 33.2163 14.8129 34.7891 14.5371C36.4442 14.2473 37.4165 12.5806 37.4727 10.9453C37.5164 9.67091 36.3827 8.69233 36.6377 7.39648C36.7771 6.68799 37.2278 5.57776 38.0293 5.46191ZM20.4082 5.57422C21.8036 5.2897 23.2509 5.51669 24.5029 6.21582C25.755 6.91499 26.7347 8.04269 27.2734 9.40723C27.0062 10.1806 26.8694 10.9968 26.8701 11.8184C26.8695 12.6398 27.0063 13.4552 27.2734 14.2285C26.7347 15.5932 25.7551 16.7217 24.5029 17.4209C23.2509 18.12 21.8035 18.346 20.4082 18.0615C19.0128 17.7769 17.7559 16.999 16.8525 15.8604C15.9492 14.7216 15.4551 13.2928 15.4551 11.8184C15.4551 10.3439 15.9492 8.9152 16.8525 7.77637C17.756 6.63752 19.0127 5.85884 20.4082 5.57422ZM22.5488 9.42676C22.0927 9.23091 21.5907 9.17946 21.1064 9.2793C20.6221 9.37922 20.1773 9.62623 19.8281 9.98828C19.479 10.3503 19.2408 10.8114 19.1445 11.3135C19.0483 11.8155 19.0982 12.3357 19.2871 12.8086C19.4762 13.2815 19.7964 13.6864 20.207 13.9707C20.6175 14.2549 21.1001 14.4063 21.5938 14.4062C22.2558 14.4061 22.8913 14.1338 23.3594 13.6484C23.8274 13.1631 24.0898 12.5046 24.0898 11.8184C24.0898 11.3064 23.9433 10.8056 23.6689 10.3799C23.3946 9.95435 23.0049 9.62263 22.5488 9.42676Z" fill="#8C8C8C"/>
</svg>
